<svg width="145" height="45" viewBox="0 0 145 45" fill="none" xmlns="http://www.w3.org/2000/svg">
<rect width="145" height="45" fill="#BAE249"/>
<path d="M37.8047 22.7734C37.8047 24.6641 37.3359 26.1172 36.3984 27.1328C35.4609 28.1484 34.1172 28.6562 32.3672 28.6562C30.6172 28.6562 29.2734 28.1484 28.3359 27.1328C27.3984 26.1172 26.9297 24.6589 26.9297 22.7578C26.9297 20.8568 27.3984 19.4062 28.3359 18.4062C29.2786 17.401 30.6276 16.8984 32.3828 16.8984C34.138 16.8984 35.4792 17.4036 36.4062 18.4141C37.3385 19.4245 37.8047 20.8776 37.8047 22.7734ZM29.4688 22.7734C29.4688 24.0495 29.7109 25.0104 30.1953 25.6562C30.6797 26.3021 31.4036 26.625 32.3672 26.625C34.2995 26.625 35.2656 25.3411 35.2656 22.7734C35.2656 20.2005 34.3047 18.9141 32.3828 18.9141C31.4193 18.9141 30.6927 19.2396 30.2031 19.8906C29.7135 20.5365 29.4688 21.4974 29.4688 22.7734ZM47.2109 19.7656V21.5547H44.3516V28.5H41.9688V21.5547H39.1016V19.7656H47.2109ZM56.7812 19.7656V28.5H54.3906V21.5547H51.2266V28.5H48.8438V19.7656H56.7812ZM64.0781 28.6562C63.0521 28.6562 62.2474 28.2839 61.6641 27.5391H61.5391C61.6224 28.2682 61.6641 28.6901 61.6641 28.8047V32.3438H59.2812V19.7656H61.2188L61.5547 20.8984H61.6641C62.2214 20.0339 63.0469 19.6016 64.1406 19.6016C65.1719 19.6016 65.9792 20 66.5625 20.7969C67.1458 21.5938 67.4375 22.7005 67.4375 24.1172C67.4375 25.0495 67.2995 25.8594 67.0234 26.5469C66.7526 27.2344 66.3646 27.7578 65.8594 28.1172C65.3542 28.4766 64.7604 28.6562 64.0781 28.6562ZM63.375 21.5078C62.7865 21.5078 62.3568 21.6901 62.0859 22.0547C61.8151 22.4141 61.6745 23.0104 61.6641 23.8438V24.1016C61.6641 25.0391 61.8021 25.7109 62.0781 26.1172C62.3594 26.5234 62.8021 26.7266 63.4062 26.7266C64.474 26.7266 65.0078 25.8464 65.0078 24.0859C65.0078 23.2266 64.875 22.5833 64.6094 22.1562C64.349 21.724 63.9375 21.5078 63.375 21.5078ZM74.9531 28.5L74.4922 27.3125H74.4297C74.0286 27.8177 73.6146 28.1693 73.1875 28.3672C72.7656 28.5599 72.2135 28.6562 71.5312 28.6562C70.6927 28.6562 70.0312 28.4167 69.5469 27.9375C69.0677 27.4583 68.8281 26.776 68.8281 25.8906C68.8281 24.9635 69.151 24.2812 69.7969 23.8438C70.4479 23.401 71.4271 23.1562 72.7344 23.1094L74.25 23.0625V22.6797C74.25 21.7943 73.7969 21.3516 72.8906 21.3516C72.1927 21.3516 71.3724 21.5625 70.4297 21.9844L69.6406 20.375C70.6458 19.849 71.7604 19.5859 72.9844 19.5859C74.1562 19.5859 75.0547 19.8411 75.6797 20.3516C76.3047 20.862 76.6172 21.638 76.6172 22.6797V28.5H74.9531ZM74.25 24.4531L73.3281 24.4844C72.6354 24.5052 72.1198 24.6302 71.7812 24.8594C71.4427 25.0885 71.2734 25.4375 71.2734 25.9062C71.2734 26.5781 71.6589 26.9141 72.4297 26.9141C72.9818 26.9141 73.4219 26.7552 73.75 26.4375C74.0833 26.1198 74.25 25.6979 74.25 25.1719V24.4531ZM87.1406 22.0547C87.1406 22.5234 86.9922 22.9245 86.6953 23.2578C86.4036 23.5859 85.9714 23.7969 85.3984 23.8906V23.9531C86.0182 24.026 86.5078 24.2396 86.8672 24.5938C87.2318 24.9427 87.4141 25.375 87.4141 25.8906C87.4141 26.7396 87.0807 27.388 86.4141 27.8359C85.7474 28.2786 84.7943 28.5 83.5547 28.5H79.0781V19.7656H83.5547C84.7526 19.7656 85.6484 19.9609 86.2422 20.3516C86.8411 20.737 87.1406 21.3047 87.1406 22.0547ZM84.9453 25.7656C84.9453 25.4219 84.8125 25.1745 84.5469 25.0234C84.2812 24.8672 83.8828 24.7891 83.3516 24.7891H81.4609V26.8516H83.3984C83.9036 26.8516 84.2865 26.7578 84.5469 26.5703C84.8125 26.3776 84.9453 26.1094 84.9453 25.7656ZM84.7266 22.2422C84.7266 21.7109 84.3047 21.4453 83.4609 21.4453H81.4609V23.1719H83.1875C83.6927 23.1719 84.0755 23.099 84.3359 22.9531C84.5964 22.8073 84.7266 22.5703 84.7266 22.2422ZM91.6172 19.7656V23.2188C91.6172 23.5833 91.5573 24.474 91.4375 25.8906L95.4688 19.7656H98.3359V28.5H96.0312V25.0156C96.0312 24.3958 96.0833 23.5208 96.1875 22.3906L92.1719 28.5H89.3125V19.7656H91.6172ZM108.07 19.7656V21.5547H105.211V28.5H102.828V21.5547H99.9609V19.7656H108.07ZM112.086 23.1406H113.766C115.109 23.1406 116.104 23.3542 116.75 23.7812C117.396 24.2083 117.719 24.8542 117.719 25.7188C117.719 27.5729 116.432 28.5 113.859 28.5H109.703V19.7656H112.086V23.1406ZM115.336 25.75C115.336 25.4115 115.201 25.1667 114.93 25.0156C114.659 24.8646 114.255 24.7891 113.719 24.7891H112.086V26.8516H113.75C114.807 26.8516 115.336 26.4844 115.336 25.75Z" fill="#0B1919"/>
</svg>
